<svg xmlns="http://www.w3.org/2000/svg" width="1100" height="1178" viewBox="0 0 1100 1178" role="img"><title>Organisation du catalogue</title><desc>Arbre local cliquable, une feuille par activité principale.</desc><rect width="100%" height="100%" fill="#fbf8f0"/><g font-family="Segoe UI, sans-serif"><text x="28" y="36" font-size="23" fill="#25201a" text-anchor="start">Organisation du catalogue</text><text x="28" y="68" font-size="14" fill="#6a6152" text-anchor="start">Hiérarchie proposée ; généraliste et spécialisation sont des activités terminales distinctes.</text><rect x="30" y="110" width="325" height="80" rx="8" fill="#ece4d1" stroke="#d6c9a8"/><text x="50" y="141" font-size="18" fill="#25201a" text-anchor="start">Métiers de Tanares</text><path d="M355,150 H385 V145 H415" fill="none" stroke="#2f7f86"/><a href="../arbre-metiers.md"><rect x="415" y="119" width="650" height="57" rx="5" fill="#ece4d1" stroke="#d6c9a8"/><text x="435" y="141" font-size="16" fill="#25201a" text-anchor="start">Production vivrière</text><text x="435" y="163" font-size="12" fill="#6a6152" text-anchor="start">7 bases, 38 branches</text></a><path d="M355,150 H385 V217 H415" fill="none" stroke="#2f7f86"/><a href="../arbre-metiers.md"><rect x="415" y="191" width="650" height="57" rx="5" fill="#ece4d1" stroke="#d6c9a8"/><text x="435" y="213" font-size="16" fill="#25201a" text-anchor="start">Ressources et extraction</text><text x="435" y="235" font-size="12" fill="#6a6152" text-anchor="start">2 bases, 9 branches</text></a><path d="M355,150 H385 V289 H415" fill="none" stroke="#2f7f86"/><a href="../arbre-metiers.md"><rect x="415" y="263" width="650" height="57" rx="5" fill="#ece4d1" stroke="#d6c9a8"/><text x="435" y="285" font-size="16" fill="#25201a" text-anchor="start">Transformation alimentaire</text><text x="435" y="307" font-size="12" fill="#6a6152" text-anchor="start">6 bases, 13 branches</text></a><path d="M355,150 H385 V361 H415" fill="none" stroke="#2f7f86"/><a href="../arbre-metiers.md"><rect x="415" y="335" width="650" height="57" rx="5" fill="#ece4d1" stroke="#d6c9a8"/><text x="435" y="357" font-size="16" fill="#25201a" text-anchor="start">Services magiques</text><text x="435" y="379" font-size="12" fill="#6a6152" text-anchor="start">2 bases, 18 branches</text></a><path d="M355,150 H385 V433 H415" fill="none" stroke="#2f7f86"/><a href="../arbre-metiers.md"><rect x="415" y="407" width="650" height="57" rx="5" fill="#ece4d1" stroke="#d6c9a8"/><text x="435" y="429" font-size="16" fill="#25201a" text-anchor="start">Artisanat et manufacture</text><text x="435" y="451" font-size="12" fill="#6a6152" text-anchor="start">19 bases, 53 branches</text></a><path d="M355,150 H385 V505 H415" fill="none" stroke="#2f7f86"/><a href="../arbre-metiers.md"><rect x="415" y="479" width="650" height="57" rx="5" fill="#ece4d1" stroke="#d6c9a8"/><text x="435" y="501" font-size="16" fill="#25201a" text-anchor="start">Construction</text><text x="435" y="523" font-size="12" fill="#6a6152" text-anchor="start">3 bases, 7 branches</text></a><path d="M355,150 H385 V577 H415" fill="none" stroke="#2f7f86"/><a href="../arbre-metiers.md"><rect x="415" y="551" width="650" height="57" rx="5" fill="#ece4d1" stroke="#d6c9a8"/><text x="435" y="573" font-size="16" fill="#25201a" text-anchor="start">Arts et spectacles</text><text x="435" y="595" font-size="12" fill="#6a6152" text-anchor="start">3 bases, 20 branches</text></a><path d="M355,150 H385 V649 H415" fill="none" stroke="#2f7f86"/><a href="../arbre-metiers.md"><rect x="415" y="623" width="650" height="57" rx="5" fill="#ece4d1" stroke="#d6c9a8"/><text x="435" y="645" font-size="16" fill="#25201a" text-anchor="start">Transport et logistique</text><text x="435" y="667" font-size="12" fill="#6a6152" text-anchor="start">3 bases, 16 branches</text></a><path d="M355,150 H385 V721 H415" fill="none" stroke="#2f7f86"/><a href="../arbre-metiers.md"><rect x="415" y="695" width="650" height="57" rx="5" fill="#ece4d1" stroke="#d6c9a8"/><text x="435" y="717" font-size="16" fill="#25201a" text-anchor="start">Services quotidiens</text><text x="435" y="739" font-size="12" fill="#6a6152" text-anchor="start">8 bases, 20 branches</text></a><path d="M355,150 H385 V793 H415" fill="none" stroke="#2f7f86"/><a href="../arbre-metiers.md"><rect x="415" y="767" width="650" height="57" rx="5" fill="#ece4d1" stroke="#d6c9a8"/><text x="435" y="789" font-size="16" fill="#25201a" text-anchor="start">Administration et justice</text><text x="435" y="811" font-size="12" fill="#6a6152" text-anchor="start">2 bases, 14 branches</text></a><path d="M355,150 H385 V865 H415" fill="none" stroke="#2f7f86"/><a href="../arbre-metiers.md"><rect x="415" y="839" width="650" height="57" rx="5" fill="#ece4d1" stroke="#d6c9a8"/><text x="435" y="861" font-size="16" fill="#25201a" text-anchor="start">Savoirs et transmission</text><text x="435" y="883" font-size="12" fill="#6a6152" text-anchor="start">5 bases, 25 branches</text></a><path d="M355,150 H385 V937 H415" fill="none" stroke="#2f7f86"/><a href="../arbre-metiers.md"><rect x="415" y="911" width="650" height="57" rx="5" fill="#ece4d1" stroke="#d6c9a8"/><text x="435" y="933" font-size="16" fill="#25201a" text-anchor="start">Cultes et rites</text><text x="435" y="955" font-size="12" fill="#6a6152" text-anchor="start">1 bases, 7 branches</text></a><path d="M355,150 H385 V1009 H415" fill="none" stroke="#2f7f86"/><a href="../arbre-metiers.md"><rect x="415" y="983" width="650" height="57" rx="5" fill="#ece4d1" stroke="#d6c9a8"/><text x="435" y="1005" font-size="16" fill="#25201a" text-anchor="start">Protection et combat</text><text x="435" y="1027" font-size="12" fill="#6a6152" text-anchor="start">4 bases, 18 branches</text></a><path d="M355,150 H385 V1081 H415" fill="none" stroke="#2f7f86"/><a href="../arbre-metiers.md"><rect x="415" y="1055" width="650" height="57" rx="5" fill="#ece4d1" stroke="#d6c9a8"/><text x="435" y="1077" font-size="16" fill="#25201a" text-anchor="start">Activités clandestines</text><text x="435" y="1099" font-size="12" fill="#6a6152" text-anchor="start">1 bases, 9 branches</text></a></g></svg>