<svg xmlns="http://www.w3.org/2000/svg" width="1100" height="735" viewBox="0 0 1100 735" role="img"><title>Dépendance énergétique aux importations</title><desc>Imports livrés / besoin annuel ; pertes de transport déjà retirées.</desc><rect width="100%" height="100%" fill="#fbf8f0"/><g font-family="Segoe UI, sans-serif"><text x="28" y="37" font-size="23" fill="#25201a" text-anchor="start">Dépendance énergétique aux importations</text><text x="28" y="68" font-size="14" fill="#6a6152" text-anchor="start">Imports livrés / besoin annuel ; pertes de transport déjà retirées.</text><path d="M330.0,105 V670" stroke="#d6c9a8"/><text x="330.0" y="90" font-size="12" fill="#6a6152" text-anchor="middle">0</text><path d="M466.0,105 V670" stroke="#d6c9a8"/><text x="466.0" y="90" font-size="12" fill="#6a6152" text-anchor="middle">22</text><path d="M602.0,105 V670" stroke="#d6c9a8"/><text x="602.0" y="90" font-size="12" fill="#6a6152" text-anchor="middle">43</text><path d="M738.0,105 V670" stroke="#d6c9a8"/><text x="738.0" y="90" font-size="12" fill="#6a6152" text-anchor="middle">65</text><path d="M874.0,105 V670" stroke="#d6c9a8"/><text x="874.0" y="90" font-size="12" fill="#6a6152" text-anchor="middle">87</text><path d="M1010.0,105 V670" stroke="#d6c9a8"/><text x="1010.0" y="90" font-size="12" fill="#6a6152" text-anchor="middle">109</text><text x="315" y="141" font-size="15" fill="#25201a" text-anchor="end">Empire central</text><rect x="330" y="120" width="0.9630363931109487" height="28" rx="3" fill="#3f6b34"/><text x="338.96303639311094" y="141" font-size="14" fill="#25201a" text-anchor="start">0,2 %</text><text x="315" y="181" font-size="15" fill="#25201a" text-anchor="end">République des Freelands</text><rect x="330" y="160" width="81.1021822231709" height="28" rx="3" fill="#3f6b34"/><text x="419.10218222317087" y="181" font-size="14" fill="#25201a" text-anchor="start">13,0 %</text><text x="315" y="221" font-size="15" fill="#25201a" text-anchor="end">Ben’net impérial</text><rect x="330" y="200" width="64.86745376222564" height="28" rx="3" fill="#3f6b34"/><text x="402.86745376222564" y="221" font-size="14" fill="#25201a" text-anchor="start">10,4 %</text><text x="315" y="261" font-size="15" fill="#25201a" text-anchor="end">Royaume de Kolbjörn</text><rect x="330" y="240" width="176.1405234420931" height="28" rx="3" fill="#3f6b34"/><text x="514.1405234420931" y="261" font-size="14" fill="#25201a" text-anchor="start">28,2 %</text><text x="315" y="301" font-size="15" fill="#25201a" text-anchor="end">Magocratie de Mage Tower</text><rect x="330" y="280" width="0.0" height="28" rx="3" fill="#3f6b34"/><text x="338.0" y="301" font-size="14" fill="#25201a" text-anchor="start">0,0 %</text><text x="315" y="341" font-size="15" fill="#25201a" text-anchor="end">Seashores</text><rect x="330" y="320" width="143.67489790170197" height="28" rx="3" fill="#3f6b34"/><text x="481.67489790170197" y="341" font-size="14" fill="#25201a" text-anchor="start">23,0 %</text><text x="315" y="381" font-size="15" fill="#25201a" text-anchor="end">Forêt de Sindile</text><rect x="330" y="360" width="0.0" height="28" rx="3" fill="#3f6b34"/><text x="338.0" y="381" font-size="14" fill="#25201a" text-anchor="start">0,0 %</text><text x="315" y="421" font-size="15" fill="#25201a" text-anchor="end">Domaines stravians</text><rect x="330" y="400" width="0.0" height="28" rx="3" fill="#3f6b34"/><text x="338.0" y="421" font-size="14" fill="#25201a" text-anchor="start">0,0 %</text><text x="315" y="461" font-size="15" fill="#25201a" text-anchor="end">Îles des Tempêtes</text><rect x="330" y="440" width="0.0" height="28" rx="3" fill="#3f6b34"/><text x="338.0" y="461" font-size="14" fill="#25201a" text-anchor="start">0,0 %</text><text x="315" y="501" font-size="15" fill="#25201a" text-anchor="end">Cités de Taii’Maku</text><rect x="330" y="480" width="459.05615668665064" height="28" rx="3" fill="#3f6b34"/><text x="797.0561566866506" y="501" font-size="14" fill="#25201a" text-anchor="start">73,4 %</text><text x="315" y="541" font-size="15" fill="#25201a" text-anchor="end">Théocratie de Kepesh</text><rect x="330" y="520" width="601.7699115044248" height="28" rx="3" fill="#3f6b34"/><text x="939.7699115044248" y="541" font-size="14" fill="#25201a" text-anchor="start">96,2 %</text><text x="315" y="581" font-size="15" fill="#25201a" text-anchor="end">Tsvetan</text><rect x="330" y="560" width="0.0" height="28" rx="3" fill="#3f6b34"/><text x="338.0" y="581" font-size="14" fill="#25201a" text-anchor="start">0,0 %</text><text x="315" y="621" font-size="15" fill="#25201a" text-anchor="end">Yama</text><rect x="330" y="600" width="0.0" height="28" rx="3" fill="#3f6b34"/><text x="338.0" y="621" font-size="14" fill="#25201a" text-anchor="start">0,0 %</text><text x="28" y="723" font-size="13" fill="#6a6152" text-anchor="start">Les valeurs exactes et les hypothèses figurent dans le tableau adjacent.</text></g></svg>