<svg xmlns="http://www.w3.org/2000/svg" width="1100" height="560" viewBox="0 0 1100 560" role="img"><title>Stocks alimentaires — Magocratie de Mage Tower</title><desc>Scénario central proposé, stocks de travail et réserves initiales explicites.</desc><rect width="100%" height="100%" fill="#fbf8f0"/><g font-family="Segoe UI, sans-serif"><text x="28" y="36" font-size="23" fill="#25201a" text-anchor="start">Stocks alimentaires — Magocratie de Mage Tower</text><text x="28" y="65" font-size="14" fill="#6a6152" text-anchor="start">Scénario central proposé, stocks de travail et réserves initiales explicites.</text><path d="M30,92 h22" stroke="#3f6b34" stroke-width="3"/><text x="60" y="98" font-size="14" fill="#25201a" text-anchor="start">Stock de fin de mois</text><path d="M360,92 h22" stroke="#2f7f86" stroke-width="3"/><text x="390" y="98" font-size="14" fill="#25201a" text-anchor="start">Réserve initiale de sécurité</text><path d="M100,445.0 H1035" stroke="#d6c9a8"/><text x="88" y="449.0" font-size="12" fill="#6a6152" text-anchor="end">0</text><path d="M100,385.0 H1035" stroke="#d6c9a8"/><text x="88" y="389.0" font-size="12" fill="#6a6152" text-anchor="end">215</text><path d="M100,325.0 H1035" stroke="#d6c9a8"/><text x="88" y="329.0" font-size="12" fill="#6a6152" text-anchor="end">430</text><path d="M100,265.0 H1035" stroke="#d6c9a8"/><text x="88" y="269.0" font-size="12" fill="#6a6152" text-anchor="end">644</text><path d="M100,205.0 H1035" stroke="#d6c9a8"/><text x="88" y="209.0" font-size="12" fill="#6a6152" text-anchor="end">859</text><path d="M100,145.0 H1035" stroke="#d6c9a8"/><text x="88" y="149.0" font-size="12" fill="#6a6152" text-anchor="end">1 074</text><polyline points="100.0,390.3394425528743 185.0,358.5675930233838 270.0,224.90193278044052 355.0,203.0922249078215 440.0,184.1304347826087 525.0,200.28379955359713 610.0,216.43716432458552 695.0,232.5905290955739 780.0,248.7438938665623 865.0,264.89725863755075 950.0,281.05062340853914 1035.0,297.2039881795275" fill="none" stroke="#3f6b34" stroke-width="3"/><circle cx="100.0" cy="390.3394425528743" r="3" fill="#3f6b34"/><circle cx="185.0" cy="358.5675930233838" r="3" fill="#3f6b34"/><circle cx="270.0" cy="224.90193278044052" r="3" fill="#3f6b34"/><circle cx="355.0" cy="203.0922249078215" r="3" fill="#3f6b34"/><circle cx="440.0" cy="184.1304347826087" r="3" fill="#3f6b34"/><circle cx="525.0" cy="200.28379955359713" r="3" fill="#3f6b34"/><circle cx="610.0" cy="216.43716432458552" r="3" fill="#3f6b34"/><circle cx="695.0" cy="232.5905290955739" r="3" fill="#3f6b34"/><circle cx="780.0" cy="248.7438938665623" r="3" fill="#3f6b34"/><circle cx="865.0" cy="264.89725863755075" r="3" fill="#3f6b34"/><circle cx="950.0" cy="281.05062340853914" r="3" fill="#3f6b34"/><circle cx="1035.0" cy="297.2039881795275" r="3" fill="#3f6b34"/><polyline points="100.0,390.3394425528743 185.0,390.3394425528743 270.0,390.3394425528743 355.0,390.3394425528743 440.0,390.3394425528743 525.0,390.3394425528743 610.0,390.3394425528743 695.0,390.3394425528743 780.0,390.3394425528743 865.0,390.3394425528743 950.0,390.3394425528743 1035.0,390.3394425528743" fill="none" stroke="#2f7f86" stroke-width="3"/><circle cx="100.0" cy="390.3394425528743" r="3" fill="#2f7f86"/><circle cx="185.0" cy="390.3394425528743" r="3" fill="#2f7f86"/><circle cx="270.0" cy="390.3394425528743" r="3" fill="#2f7f86"/><circle cx="355.0" cy="390.3394425528743" r="3" fill="#2f7f86"/><circle cx="440.0" cy="390.3394425528743" r="3" fill="#2f7f86"/><circle cx="525.0" cy="390.3394425528743" r="3" fill="#2f7f86"/><circle cx="610.0" cy="390.3394425528743" r="3" fill="#2f7f86"/><circle cx="695.0" cy="390.3394425528743" r="3" fill="#2f7f86"/><circle cx="780.0" cy="390.3394425528743" r="3" fill="#2f7f86"/><circle cx="865.0" cy="390.3394425528743" r="3" fill="#2f7f86"/><circle cx="950.0" cy="390.3394425528743" r="3" fill="#2f7f86"/><circle cx="1035.0" cy="390.3394425528743" r="3" fill="#2f7f86"/><text x="100.0" y="480" font-size="12" fill="#6a6152" text-anchor="middle">M1</text><text x="185.0" y="480" font-size="12" fill="#6a6152" text-anchor="middle">M2</text><text x="270.0" y="480" font-size="12" fill="#6a6152" text-anchor="middle">M3</text><text x="355.0" y="480" font-size="12" fill="#6a6152" text-anchor="middle">M4</text><text x="440.0" y="480" font-size="12" fill="#6a6152" text-anchor="middle">M5</text><text x="525.0" y="480" font-size="12" fill="#6a6152" text-anchor="middle">M6</text><text x="610.0" y="480" font-size="12" fill="#6a6152" text-anchor="middle">M7</text><text x="695.0" y="480" font-size="12" fill="#6a6152" text-anchor="middle">M8</text><text x="780.0" y="480" font-size="12" fill="#6a6152" text-anchor="middle">M9</text><text x="865.0" y="480" font-size="12" fill="#6a6152" text-anchor="middle">M10</text><text x="950.0" y="480" font-size="12" fill="#6a6152" text-anchor="middle">M11</text><text x="1035.0" y="480" font-size="12" fill="#6a6152" text-anchor="middle">M12</text><text x="28" y="525" font-size="14" fill="#6a6152" text-anchor="start">Milliards kcal ; M1 début été, M4 début automne, M7 début hiver, M10 début printemps.</text></g></svg>