<svg xmlns="http://www.w3.org/2000/svg" width="1100" height="560" viewBox="0 0 1100 560" role="img"><title>Stocks alimentaires — Seashores</title><desc>Scénario central proposé, stocks de travail et réserves initiales explicites.</desc><rect width="100%" height="100%" fill="#fbf8f0"/><g font-family="Segoe UI, sans-serif"><text x="28" y="36" font-size="23" fill="#25201a" text-anchor="start">Stocks alimentaires — Seashores</text><text x="28" y="65" font-size="14" fill="#6a6152" text-anchor="start">Scénario central proposé, stocks de travail et réserves initiales explicites.</text><path d="M30,92 h22" stroke="#3f6b34" stroke-width="3"/><text x="60" y="98" font-size="14" fill="#25201a" text-anchor="start">Stock de fin de mois</text><path d="M360,92 h22" stroke="#2f7f86" stroke-width="3"/><text x="390" y="98" font-size="14" fill="#25201a" text-anchor="start">Réserve initiale de sécurité</text><path d="M100,445.0 H1035" stroke="#d6c9a8"/><text x="88" y="449.0" font-size="12" fill="#6a6152" text-anchor="end">0</text><path d="M100,385.0 H1035" stroke="#d6c9a8"/><text x="88" y="389.0" font-size="12" fill="#6a6152" text-anchor="end">59</text><path d="M100,325.0 H1035" stroke="#d6c9a8"/><text x="88" y="329.0" font-size="12" fill="#6a6152" text-anchor="end">118</text><path d="M100,265.0 H1035" stroke="#d6c9a8"/><text x="88" y="269.0" font-size="12" fill="#6a6152" text-anchor="end">177</text><path d="M100,205.0 H1035" stroke="#d6c9a8"/><text x="88" y="209.0" font-size="12" fill="#6a6152" text-anchor="end">236</text><path d="M100,145.0 H1035" stroke="#d6c9a8"/><text x="88" y="149.0" font-size="12" fill="#6a6152" text-anchor="end">295</text><polyline points="100.0,308.34099492188346 185.0,304.92776184061734 270.0,257.5516528551492 355.0,219.14955036324594 440.0,184.13043478260866 525.0,196.94042274263242 610.0,213.88945305063208 695.0,232.97785185324352 780.0,252.06625065585496 865.0,271.1546494584664 950.0,286.1040059131019 1035.0,298.9139938731257" fill="none" stroke="#3f6b34" stroke-width="3"/><circle cx="100.0" cy="308.34099492188346" r="3" fill="#3f6b34"/><circle cx="185.0" cy="304.92776184061734" r="3" fill="#3f6b34"/><circle cx="270.0" cy="257.5516528551492" r="3" fill="#3f6b34"/><circle cx="355.0" cy="219.14955036324594" r="3" fill="#3f6b34"/><circle cx="440.0" cy="184.13043478260866" r="3" fill="#3f6b34"/><circle cx="525.0" cy="196.94042274263242" r="3" fill="#3f6b34"/><circle cx="610.0" cy="213.88945305063208" r="3" fill="#3f6b34"/><circle cx="695.0" cy="232.97785185324352" r="3" fill="#3f6b34"/><circle cx="780.0" cy="252.06625065585496" r="3" fill="#3f6b34"/><circle cx="865.0" cy="271.1546494584664" r="3" fill="#3f6b34"/><circle cx="950.0" cy="286.1040059131019" r="3" fill="#3f6b34"/><circle cx="1035.0" cy="298.9139938731257" r="3" fill="#3f6b34"/><polyline points="100.0,308.34099492188346 185.0,308.34099492188346 270.0,308.34099492188346 355.0,308.34099492188346 440.0,308.34099492188346 525.0,308.34099492188346 610.0,308.34099492188346 695.0,308.34099492188346 780.0,308.34099492188346 865.0,308.34099492188346 950.0,308.34099492188346 1035.0,308.34099492188346" fill="none" stroke="#2f7f86" stroke-width="3"/><circle cx="100.0" cy="308.34099492188346" r="3" fill="#2f7f86"/><circle cx="185.0" cy="308.34099492188346" r="3" fill="#2f7f86"/><circle cx="270.0" cy="308.34099492188346" r="3" fill="#2f7f86"/><circle cx="355.0" cy="308.34099492188346" r="3" fill="#2f7f86"/><circle cx="440.0" cy="308.34099492188346" r="3" fill="#2f7f86"/><circle cx="525.0" cy="308.34099492188346" r="3" fill="#2f7f86"/><circle cx="610.0" cy="308.34099492188346" r="3" fill="#2f7f86"/><circle cx="695.0" cy="308.34099492188346" r="3" fill="#2f7f86"/><circle cx="780.0" cy="308.34099492188346" r="3" fill="#2f7f86"/><circle cx="865.0" cy="308.34099492188346" r="3" fill="#2f7f86"/><circle cx="950.0" cy="308.34099492188346" r="3" fill="#2f7f86"/><circle cx="1035.0" cy="308.34099492188346" r="3" fill="#2f7f86"/><text x="100.0" y="480" font-size="12" fill="#6a6152" text-anchor="middle">M1</text><text x="185.0" y="480" font-size="12" fill="#6a6152" text-anchor="middle">M2</text><text x="270.0" y="480" font-size="12" fill="#6a6152" text-anchor="middle">M3</text><text x="355.0" y="480" font-size="12" fill="#6a6152" text-anchor="middle">M4</text><text x="440.0" y="480" font-size="12" fill="#6a6152" text-anchor="middle">M5</text><text x="525.0" y="480" font-size="12" fill="#6a6152" text-anchor="middle">M6</text><text x="610.0" y="480" font-size="12" fill="#6a6152" text-anchor="middle">M7</text><text x="695.0" y="480" font-size="12" fill="#6a6152" text-anchor="middle">M8</text><text x="780.0" y="480" font-size="12" fill="#6a6152" text-anchor="middle">M9</text><text x="865.0" y="480" font-size="12" fill="#6a6152" text-anchor="middle">M10</text><text x="950.0" y="480" font-size="12" fill="#6a6152" text-anchor="middle">M11</text><text x="1035.0" y="480" font-size="12" fill="#6a6152" text-anchor="middle">M12</text><text x="28" y="525" font-size="14" fill="#6a6152" text-anchor="start">Milliards kcal ; M1 début été, M4 début automne, M7 début hiver, M10 début printemps.</text></g></svg>