<svg xmlns="http://www.w3.org/2000/svg" width="1100" height="560" viewBox="0 0 1100 560" role="img"><title>Stocks alimentaires — Cités de Taii’Maku</title><desc>Scénario central proposé, stocks de travail et réserves initiales explicites.</desc><rect width="100%" height="100%" fill="#fbf8f0"/><g font-family="Segoe UI, sans-serif"><text x="28" y="36" font-size="23" fill="#25201a" text-anchor="start">Stocks alimentaires — Cités de Taii’Maku</text><text x="28" y="65" font-size="14" fill="#6a6152" text-anchor="start">Scénario central proposé, stocks de travail et réserves initiales explicites.</text><path d="M30,92 h22" stroke="#3f6b34" stroke-width="3"/><text x="60" y="98" font-size="14" fill="#25201a" text-anchor="start">Stock de fin de mois</text><path d="M360,92 h22" stroke="#2f7f86" stroke-width="3"/><text x="390" y="98" font-size="14" fill="#25201a" text-anchor="start">Réserve initiale de sécurité</text><path d="M100,445.0 H1035" stroke="#d6c9a8"/><text x="88" y="449.0" font-size="12" fill="#6a6152" text-anchor="end">0</text><path d="M100,385.0 H1035" stroke="#d6c9a8"/><text x="88" y="389.0" font-size="12" fill="#6a6152" text-anchor="end">62</text><path d="M100,325.0 H1035" stroke="#d6c9a8"/><text x="88" y="329.0" font-size="12" fill="#6a6152" text-anchor="end">124</text><path d="M100,265.0 H1035" stroke="#d6c9a8"/><text x="88" y="269.0" font-size="12" fill="#6a6152" text-anchor="end">185</text><path d="M100,205.0 H1035" stroke="#d6c9a8"/><text x="88" y="209.0" font-size="12" fill="#6a6152" text-anchor="end">247</text><path d="M100,145.0 H1035" stroke="#d6c9a8"/><text x="88" y="149.0" font-size="12" fill="#6a6152" text-anchor="end">309</text><polyline points="100.0,293.0659338896901 185.0,277.81195226173776 270.0,208.0017618610166 355.0,195.16037315961353 440.0,184.13043478260866 525.0,192.90507670309015 610.0,210.71894800948033 695.0,229.63104344686877 780.0,248.5431388842572 865.0,267.4552343216456 950.0,277.3281003731254 1035.0,286.10274229360675" fill="none" stroke="#3f6b34" stroke-width="3"/><circle cx="100.0" cy="293.0659338896901" r="3" fill="#3f6b34"/><circle cx="185.0" cy="277.81195226173776" r="3" fill="#3f6b34"/><circle cx="270.0" cy="208.0017618610166" r="3" fill="#3f6b34"/><circle cx="355.0" cy="195.16037315961353" r="3" fill="#3f6b34"/><circle cx="440.0" cy="184.13043478260866" r="3" fill="#3f6b34"/><circle cx="525.0" cy="192.90507670309015" r="3" fill="#3f6b34"/><circle cx="610.0" cy="210.71894800948033" r="3" fill="#3f6b34"/><circle cx="695.0" cy="229.63104344686877" r="3" fill="#3f6b34"/><circle cx="780.0" cy="248.5431388842572" r="3" fill="#3f6b34"/><circle cx="865.0" cy="267.4552343216456" r="3" fill="#3f6b34"/><circle cx="950.0" cy="277.3281003731254" r="3" fill="#3f6b34"/><circle cx="1035.0" cy="286.10274229360675" r="3" fill="#3f6b34"/><polyline points="100.0,293.0659338896901 185.0,293.0659338896901 270.0,293.0659338896901 355.0,293.0659338896901 440.0,293.0659338896901 525.0,293.0659338896901 610.0,293.0659338896901 695.0,293.0659338896901 780.0,293.0659338896901 865.0,293.0659338896901 950.0,293.0659338896901 1035.0,293.0659338896901" fill="none" stroke="#2f7f86" stroke-width="3"/><circle cx="100.0" cy="293.0659338896901" r="3" fill="#2f7f86"/><circle cx="185.0" cy="293.0659338896901" r="3" fill="#2f7f86"/><circle cx="270.0" cy="293.0659338896901" r="3" fill="#2f7f86"/><circle cx="355.0" cy="293.0659338896901" r="3" fill="#2f7f86"/><circle cx="440.0" cy="293.0659338896901" r="3" fill="#2f7f86"/><circle cx="525.0" cy="293.0659338896901" r="3" fill="#2f7f86"/><circle cx="610.0" cy="293.0659338896901" r="3" fill="#2f7f86"/><circle cx="695.0" cy="293.0659338896901" r="3" fill="#2f7f86"/><circle cx="780.0" cy="293.0659338896901" r="3" fill="#2f7f86"/><circle cx="865.0" cy="293.0659338896901" r="3" fill="#2f7f86"/><circle cx="950.0" cy="293.0659338896901" r="3" fill="#2f7f86"/><circle cx="1035.0" cy="293.0659338896901" r="3" fill="#2f7f86"/><text x="100.0" y="480" font-size="12" fill="#6a6152" text-anchor="middle">M1</text><text x="185.0" y="480" font-size="12" fill="#6a6152" text-anchor="middle">M2</text><text x="270.0" y="480" font-size="12" fill="#6a6152" text-anchor="middle">M3</text><text x="355.0" y="480" font-size="12" fill="#6a6152" text-anchor="middle">M4</text><text x="440.0" y="480" font-size="12" fill="#6a6152" text-anchor="middle">M5</text><text x="525.0" y="480" font-size="12" fill="#6a6152" text-anchor="middle">M6</text><text x="610.0" y="480" font-size="12" fill="#6a6152" text-anchor="middle">M7</text><text x="695.0" y="480" font-size="12" fill="#6a6152" text-anchor="middle">M8</text><text x="780.0" y="480" font-size="12" fill="#6a6152" text-anchor="middle">M9</text><text x="865.0" y="480" font-size="12" fill="#6a6152" text-anchor="middle">M10</text><text x="950.0" y="480" font-size="12" fill="#6a6152" text-anchor="middle">M11</text><text x="1035.0" y="480" font-size="12" fill="#6a6152" text-anchor="middle">M12</text><text x="28" y="525" font-size="14" fill="#6a6152" text-anchor="start">Milliards kcal ; M1 début été, M4 début automne, M7 début hiver, M10 début printemps.</text></g></svg>